<svg width="33" height="33" viewBox="0 0 33 33" fill="none" xmlns="http://www.w3.org/2000/svg">
<path d="M0.292893 30.9203C-0.0976311 31.3109 -0.0976311 31.944 0.292893 32.3345C0.683418 32.7251 1.31658 32.7251 1.70711 32.3345L0.292893 30.9203ZM32.6274 1.00006C32.6274 0.447781 32.1797 6.59439e-05 31.6274 6.43423e-05L22.6274 6.37944e-05C22.0751 6.48059e-05 21.6274 0.447779 21.6274 1.00006C21.6274 1.55235 22.0751 2.00007 22.6274 2.00006L30.6274 2.00007L30.6274 10.0001C30.6274 10.5524 31.0751 11.0001 31.6274 11.0001C32.1797 11.0001 32.6274 10.5523 32.6274 10.0001L32.6274 1.00006ZM1.70711 32.3345L32.3345 1.70717L30.9203 0.292958L0.292893 30.9203L1.70711 32.3345Z" fill="white"/>
</svg>
