<svg width="14" height="14" viewBox="0 0 14 14" fill="none" xmlns="http://www.w3.org/2000/svg">
<path d="M0.292893 11.7215C-0.0976311 12.112 -0.0976311 12.7452 0.292893 13.1357C0.683418 13.5262 1.31658 13.5262 1.70711 13.1357L1 12.4286L0.292893 11.7215ZM13.4286 1.00002C13.4286 0.447734 12.9809 1.83397e-05 12.4286 1.80868e-05L3.42857 1.88876e-05C2.87629 1.85504e-05 2.42857 0.447734 2.42857 1.00002C2.42857 1.5523 2.87629 2.00002 3.42857 2.00002L11.4286 2.00002L11.4286 10C11.4286 10.5523 11.8763 11 12.4286 11C12.9809 11 13.4286 10.5523 13.4286 10L13.4286 1.00002ZM1 12.4286L1.70711 13.1357L13.1357 1.70713L12.4286 1.00002L11.7215 0.292912L0.292893 11.7215L1 12.4286Z" fill="white"/>
</svg>
