<svg width="69" height="24" viewBox="0 0 69 24" fill="none" xmlns="http://www.w3.org/2000/svg">
<path d="M8.03553 23.0161C5.73953 23.0161 3.8542 22.4747 2.37953 21.3921C0.904865 20.2907 0.111531 18.7227 -0.000468746 16.6881H5.85153C5.90753 17.3787 6.11286 17.8827 6.46753 18.2001C6.8222 18.5174 7.27953 18.6761 7.83953 18.6761C8.34353 18.6761 8.7542 18.5547 9.07153 18.3121C9.40753 18.0507 9.57553 17.6961 9.57553 17.2481C9.57553 16.6694 9.30486 16.2214 8.76353 15.9041C8.2222 15.5867 7.34486 15.2321 6.13153 14.8401C4.84353 14.4107 3.7982 14.0001 2.99553 13.6081C2.21153 13.1974 1.52086 12.6094 0.923531 11.8441C0.344865 11.0601 0.0555313 10.0427 0.0555313 8.79207C0.0555313 7.52273 0.372865 6.44007 1.00753 5.54407C1.6422 4.6294 2.51953 3.93873 3.63953 3.47207C4.75953 3.0054 6.02887 2.77207 7.44753 2.77207C9.74353 2.77207 11.5729 3.3134 12.9355 4.39607C14.3169 5.46007 15.0542 6.96273 15.1475 8.90407H9.18353C9.16486 8.30673 8.9782 7.85873 8.62353 7.56007C8.28753 7.2614 7.84886 7.11207 7.30753 7.11207C6.89686 7.11207 6.56087 7.2334 6.29953 7.47607C6.0382 7.71873 5.90753 8.06407 5.90753 8.51207C5.90753 8.8854 6.04753 9.21207 6.32753 9.49207C6.6262 9.7534 6.9902 9.98673 7.41953 10.1921C7.84886 10.3787 8.48353 10.6214 9.32353 10.9201C10.5742 11.3494 11.6009 11.7787 12.4035 12.2081C13.2249 12.6187 13.9249 13.2067 14.5035 13.9721C15.1009 14.7187 15.3995 15.6707 15.3995 16.8281C15.3995 18.0041 15.1009 19.0587 14.5035 19.9921C13.9249 20.9254 13.0755 21.6627 11.9555 22.2041C10.8542 22.7454 9.54753 23.0161 8.03553 23.0161ZM23.4388 2.10007V22.8201H17.9508V2.10007H23.4388ZM29.3361 5.65607C28.3654 5.65607 27.5814 5.39473 26.9841 4.87207C26.4054 4.33073 26.1161 3.65873 26.1161 2.85607C26.1161 2.03473 26.4054 1.3534 26.9841 0.812068C27.5814 0.270734 28.3654 6.67572e-05 29.3361 6.67572e-05C30.2881 6.67572e-05 31.0534 0.270734 31.6321 0.812068C32.2294 1.3534 32.5281 2.03473 32.5281 2.85607C32.5281 3.65873 32.2294 4.33073 31.6321 4.87207C31.0534 5.39473 30.2881 5.65607 29.3361 5.65607ZM32.0521 7.11207V22.8201H26.5641V7.11207H32.0521ZM34.2814 14.9521C34.2814 13.3281 34.6174 11.9094 35.2894 10.6961C35.9614 9.48273 36.8947 8.5494 38.0894 7.89607C39.3027 7.24273 40.684 6.91607 42.2334 6.91607C44.2307 6.91607 45.9107 7.46673 47.2734 8.56807C48.636 9.65073 49.5134 11.1721 49.9054 13.1321H44.0814C43.7454 12.1054 43.092 11.5921 42.1214 11.5921C41.4307 11.5921 40.88 11.8814 40.4694 12.4601C40.0774 13.0201 39.8814 13.8507 39.8814 14.9521C39.8814 16.0534 40.0774 16.8934 40.4694 17.4721C40.88 18.0507 41.4307 18.3401 42.1214 18.3401C43.1107 18.3401 43.764 17.8267 44.0814 16.8001H49.9054C49.5134 18.7414 48.636 20.2627 47.2734 21.3641C45.9107 22.4654 44.2307 23.0161 42.2334 23.0161C40.684 23.0161 39.3027 22.6894 38.0894 22.0361C36.8947 21.3827 35.9614 20.4494 35.2894 19.2361C34.6174 18.0227 34.2814 16.5947 34.2814 14.9521ZM62.0132 22.8201L57.6732 16.3801V22.8201H52.1852V2.10007H57.6732V13.2721L62.0132 7.11207H68.5932L62.4052 15.0081L68.7052 22.8201H62.0132Z" fill="white"/>
</svg>
